<svg xmlns="http://www.w3.org/2000/svg" viewBox="0 0 100 100">
  <defs>
    <linearGradient id="bg" x1="0%" y1="0%" x2="100%" y2="100%">
      <stop offset="0%" style="stop-color:#f5f5f4"/>
      <stop offset="100%" style="stop-color:#e7e5e4"/>
    </linearGradient>
  </defs>
  <!-- Background circle -->
  <circle cx="50" cy="50" r="48" fill="url(#bg)" stroke="#a8a29e" stroke-width="2"/>
  <!-- House roof -->
  <path d="M50 18 L82 45 L76 45 L76 78 L24 78 L24 45 L18 45 Z" fill="#292524"/>
  <!-- House body -->
  <rect x="30" y="45" width="40" height="33" fill="#44403c"/>
  <!-- Door -->
  <rect x="42" y="55" width="16" height="23" fill="#78716c" rx="2"/>
  <!-- Door handle -->
  <circle cx="54" cy="68" r="2" fill="#292524"/>
  <!-- Window left -->
  <rect x="34" y="50" width="10" height="10" fill="#fef3c7" rx="1"/>
  <line x1="39" y1="50" x2="39" y2="60" stroke="#44403c" stroke-width="1"/>
  <line x1="34" y1="55" x2="44" y2="55" stroke="#44403c" stroke-width="1"/>
  <!-- Window right -->
  <rect x="56" y="50" width="10" height="10" fill="#fef3c7" rx="1"/>
  <line x1="61" y1="50" x2="61" y2="60" stroke="#44403c" stroke-width="1"/>
  <line x1="56" y1="55" x2="66" y2="55" stroke="#44403c" stroke-width="1"/>
  <!-- Chimney -->
  <rect x="62" y="25" width="8" height="15" fill="#57534e"/>
</svg>
